<mxfile host="Electron" modified="2023-09-07T17:37:09.669Z" agent="Mozilla/5.0 (Windows NT 10.0; Win64; x64) AppleWebKit/537.36 (KHTML, like Gecko) draw.io/21.6.8 Chrome/114.0.5735.289 Electron/25.5.0 Safari/537.36" etag="52eKhvLMsixmdihy5R5B" version="21.6.8" type="device">
  <diagram name="Page-1" id="kh4NS9lcuchYXiV_2pb0">
    <mxGraphModel dx="989" dy="577" grid="1" gridSize="10" guides="1" tooltips="1" connect="1" arrows="1" fold="1" page="1" pageScale="1" pageWidth="1600" pageHeight="900" math="0" shadow="0">
      <root>
        <mxCell id="0" />
        <mxCell id="1" parent="0" />
        <mxCell id="9dN6sZSFoW03rVCsNqzm-5" style="edgeStyle=orthogonalEdgeStyle;rounded=0;orthogonalLoop=1;jettySize=auto;html=1;dashed=1;endArrow=none;endFill=0;" edge="1" parent="1" source="9dN6sZSFoW03rVCsNqzm-1">
          <mxGeometry relative="1" as="geometry">
            <mxPoint x="135" y="470" as="targetPoint" />
          </mxGeometry>
        </mxCell>
        <mxCell id="9dN6sZSFoW03rVCsNqzm-1" value="Employee" style="shape=umlActor;verticalLabelPosition=bottom;verticalAlign=top;html=1;outlineConnect=0;" vertex="1" parent="1">
          <mxGeometry x="120" y="80" width="30" height="60" as="geometry" />
        </mxCell>
        <mxCell id="9dN6sZSFoW03rVCsNqzm-6" style="edgeStyle=orthogonalEdgeStyle;rounded=0;orthogonalLoop=1;jettySize=auto;html=1;dashed=1;endArrow=none;endFill=0;" edge="1" parent="1" source="9dN6sZSFoW03rVCsNqzm-2">
          <mxGeometry relative="1" as="geometry">
            <mxPoint x="340" y="470" as="targetPoint" />
          </mxGeometry>
        </mxCell>
        <mxCell id="9dN6sZSFoW03rVCsNqzm-2" value="Employee System" style="rounded=0;whiteSpace=wrap;html=1;" vertex="1" parent="1">
          <mxGeometry x="280" y="80" width="120" height="40" as="geometry" />
        </mxCell>
        <mxCell id="9dN6sZSFoW03rVCsNqzm-7" style="edgeStyle=orthogonalEdgeStyle;rounded=0;orthogonalLoop=1;jettySize=auto;html=1;dashed=1;endArrow=none;endFill=0;" edge="1" parent="1" source="9dN6sZSFoW03rVCsNqzm-3">
          <mxGeometry relative="1" as="geometry">
            <mxPoint x="580" y="470" as="targetPoint" />
          </mxGeometry>
        </mxCell>
        <mxCell id="9dN6sZSFoW03rVCsNqzm-3" value="Database" style="rounded=0;whiteSpace=wrap;html=1;" vertex="1" parent="1">
          <mxGeometry x="520" y="80" width="120" height="40" as="geometry" />
        </mxCell>
        <mxCell id="9dN6sZSFoW03rVCsNqzm-8" value="" style="endArrow=classic;html=1;rounded=0;" edge="1" parent="1">
          <mxGeometry width="50" height="50" relative="1" as="geometry">
            <mxPoint x="135" y="200" as="sourcePoint" />
            <mxPoint x="340" y="200" as="targetPoint" />
          </mxGeometry>
        </mxCell>
        <mxCell id="9dN6sZSFoW03rVCsNqzm-9" value="view schedule" style="text;html=1;strokeColor=none;fillColor=none;align=center;verticalAlign=middle;whiteSpace=wrap;rounded=0;" vertex="1" parent="1">
          <mxGeometry x="190" y="170" width="90" height="30" as="geometry" />
        </mxCell>
        <mxCell id="9dN6sZSFoW03rVCsNqzm-10" value="" style="endArrow=classic;html=1;rounded=0;" edge="1" parent="1">
          <mxGeometry width="50" height="50" relative="1" as="geometry">
            <mxPoint x="340" y="223" as="sourcePoint" />
            <mxPoint x="580" y="223" as="targetPoint" />
          </mxGeometry>
        </mxCell>
        <mxCell id="9dN6sZSFoW03rVCsNqzm-11" value="Fetch Appointments" style="text;html=1;strokeColor=none;fillColor=none;align=center;verticalAlign=middle;whiteSpace=wrap;rounded=0;" vertex="1" parent="1">
          <mxGeometry x="410" y="200" width="110" height="30" as="geometry" />
        </mxCell>
        <mxCell id="9dN6sZSFoW03rVCsNqzm-12" value="" style="endArrow=none;html=1;rounded=0;endFill=0;startArrow=classic;startFill=1;dashed=1;" edge="1" parent="1">
          <mxGeometry width="50" height="50" relative="1" as="geometry">
            <mxPoint x="340" y="265" as="sourcePoint" />
            <mxPoint x="580" y="265" as="targetPoint" />
          </mxGeometry>
        </mxCell>
        <mxCell id="9dN6sZSFoW03rVCsNqzm-13" value="Return Schedule" style="text;html=1;strokeColor=none;fillColor=none;align=center;verticalAlign=middle;whiteSpace=wrap;rounded=0;" vertex="1" parent="1">
          <mxGeometry x="410" y="242" width="110" height="30" as="geometry" />
        </mxCell>
        <mxCell id="9dN6sZSFoW03rVCsNqzm-14" value="" style="endArrow=classic;html=1;rounded=0;" edge="1" parent="1">
          <mxGeometry width="50" height="50" relative="1" as="geometry">
            <mxPoint x="135.5" y="290" as="sourcePoint" />
            <mxPoint x="340.5" y="290" as="targetPoint" />
          </mxGeometry>
        </mxCell>
        <mxCell id="9dN6sZSFoW03rVCsNqzm-15" value="Display Schedule" style="text;html=1;strokeColor=none;fillColor=none;align=center;verticalAlign=middle;whiteSpace=wrap;rounded=0;" vertex="1" parent="1">
          <mxGeometry x="180" y="260" width="100.5" height="30" as="geometry" />
        </mxCell>
        <mxCell id="9dN6sZSFoW03rVCsNqzm-16" value="Update Availability" style="text;html=1;strokeColor=none;fillColor=none;align=center;verticalAlign=middle;whiteSpace=wrap;rounded=0;" vertex="1" parent="1">
          <mxGeometry x="180.25" y="321" width="109.5" height="30" as="geometry" />
        </mxCell>
        <mxCell id="9dN6sZSFoW03rVCsNqzm-17" value="" style="endArrow=classic;html=1;rounded=0;" edge="1" parent="1">
          <mxGeometry width="50" height="50" relative="1" as="geometry">
            <mxPoint x="135.5" y="351" as="sourcePoint" />
            <mxPoint x="340.5" y="351" as="targetPoint" />
          </mxGeometry>
        </mxCell>
        <mxCell id="9dN6sZSFoW03rVCsNqzm-20" value="Store Availability Update&amp;nbsp;" style="text;html=1;strokeColor=none;fillColor=none;align=center;verticalAlign=middle;whiteSpace=wrap;rounded=0;" vertex="1" parent="1">
          <mxGeometry x="390" y="351" width="140" height="30" as="geometry" />
        </mxCell>
        <mxCell id="9dN6sZSFoW03rVCsNqzm-21" value="" style="endArrow=classic;html=1;rounded=0;" edge="1" parent="1">
          <mxGeometry width="50" height="50" relative="1" as="geometry">
            <mxPoint x="340" y="374" as="sourcePoint" />
            <mxPoint x="580" y="374" as="targetPoint" />
          </mxGeometry>
        </mxCell>
        <mxCell id="9dN6sZSFoW03rVCsNqzm-22" value="Confirming Update" style="text;html=1;strokeColor=none;fillColor=none;align=center;verticalAlign=middle;whiteSpace=wrap;rounded=0;" vertex="1" parent="1">
          <mxGeometry x="410" y="381" width="110" height="30" as="geometry" />
        </mxCell>
        <mxCell id="9dN6sZSFoW03rVCsNqzm-23" value="" style="endArrow=none;html=1;rounded=0;endFill=0;startArrow=classic;startFill=1;dashed=1;" edge="1" parent="1">
          <mxGeometry width="50" height="50" relative="1" as="geometry">
            <mxPoint x="340" y="404" as="sourcePoint" />
            <mxPoint x="580" y="404" as="targetPoint" />
          </mxGeometry>
        </mxCell>
        <mxCell id="9dN6sZSFoW03rVCsNqzm-24" value="" style="endArrow=none;html=1;rounded=0;edgeStyle=orthogonalEdgeStyle;" edge="1" parent="1">
          <mxGeometry width="50" height="50" relative="1" as="geometry">
            <mxPoint x="120" y="470" as="sourcePoint" />
            <mxPoint x="600" y="470" as="targetPoint" />
          </mxGeometry>
        </mxCell>
      </root>
    </mxGraphModel>
  </diagram>
</mxfile>
